<svg xmlns="http://www.w3.org/2000/svg" viewBox="0 0 512 512">
  <rect width="512" height="512" fill="#ffffff"/>
  <polygon points="426.00,256.00 425.85,294.97 425.42,307.37 424.69,316.33 423.66,323.55 422.33,329.67 420.70,334.99 418.76,339.70 416.49,343.91 413.90,347.70 410.97,351.11 407.67,354.20 403.99,356.98 399.91,359.49 395.39,361.74 390.38,363.74 384.84,365.51 378.67,367.06 371.77,368.38 363.97,369.50 355.00,370.40 344.42,371.10 331.29,371.60 313.11,371.90 256.00,372.00 198.89,371.90 180.71,371.60 167.58,371.10 157.00,370.40 148.03,369.50 140.23,368.38 133.33,367.06 127.16,365.51 121.62,363.74 116.61,361.74 112.09,359.49 108.01,356.98 104.33,354.20 101.03,351.11 98.10,347.70 95.51,343.91 93.24,339.70 91.30,334.99 89.67,329.67 88.34,323.55 87.31,316.33 86.58,307.37 86.15,294.97 86.00,256.00 86.15,217.03 86.58,204.63 87.31,195.67 88.34,188.45 89.67,182.33 91.30,177.01 93.24,172.30 95.51,168.09 98.10,164.30 101.03,160.89 104.33,157.80 108.01,155.02 112.09,152.51 116.61,150.26 121.62,148.26 127.16,146.49 133.33,144.94 140.23,143.62 148.03,142.50 157.00,141.60 167.58,140.90 180.71,140.40 198.89,140.10 256.00,140.00 313.11,140.10 331.29,140.40 344.42,140.90 355.00,141.60 363.97,142.50 371.77,143.62 378.67,144.94 384.84,146.49 390.38,148.26 395.39,150.26 399.91,152.51 403.99,155.02 407.67,157.80 410.97,160.89 413.90,164.30 416.49,168.09 418.76,172.30 420.70,177.01 422.33,182.33 423.66,188.45 424.69,195.67 425.42,204.63 425.85,217.03" fill="#5865F2"/>
  <polygon points="265,184 219,264 256,264 237,328 293,242 265,242" fill="#ffffff"/>
</svg>
