<svg xmlns="http://www.w3.org/2000/svg" viewBox="0 0 512 512"><polygon fill="#5865F2" points="426 256 425.85 294.97 425.42 307.37 424.69 316.33 423.66 323.55 422.33 329.67 420.7 334.99 418.76 339.7 416.49 343.91 413.9 347.7 410.97 351.11 407.67 354.2 403.99 356.98 399.91 359.49 395.39 361.74 390.38 363.74 384.84 365.51 378.67 367.06 371.77 368.38 363.97 369.5 355 370.4 344.42 371.1 331.29 371.6 313.11 371.9 256 372 198.89 371.9 180.71 371.6 167.58 371.1 157 370.4 148.03 369.5 140.23 368.38 133.33 367.06 127.16 365.51 121.62 363.74 116.61 361.74 112.09 359.49 108.01 356.98 104.33 354.2 101.03 351.11 98.1 347.7 95.51 343.91 93.24 339.7 91.3 334.99 89.67 329.67 88.34 323.55 87.31 316.33 86.58 307.37 86.15 294.97 86 256 86.15 217.03 86.58 204.63 87.31 195.67 88.34 188.45 89.67 182.33 91.3 177.01 93.24 172.3 95.51 168.09 98.1 164.3 101.03 160.89 104.33 157.8 108.01 155.02 112.09 152.51 116.61 150.26 121.62 148.26 127.16 146.49 133.33 144.94 140.23 143.62 148.03 142.5 157 141.6 167.58 140.9 180.71 140.4 198.89 140.1 256 140 313.11 140.1 331.29 140.4 344.42 140.9 355 141.6 363.97 142.5 371.77 143.62 378.67 144.94 384.84 146.49 390.38 148.26 395.39 150.26 399.91 152.51 403.99 155.02 407.67 157.8 410.97 160.89 413.9 164.3 416.49 168.09 418.76 172.3 420.7 177.01 422.33 182.33 423.66 188.45 424.69 195.67 425.42 204.63 425.85 217.03"/><polygon fill="#fff" points="265 184 219 264 256 264 237 328 293 242 265 242"/></svg>